<?xml version="1.0" encoding="utf-8"?>
<!-- Generator: Adobe Illustrator 21.1.0, SVG Export Plug-In . SVG Version: 6.00 Build 0)  -->
<svg version="1.1" id="Layer_1" xmlns="http://www.w3.org/2000/svg" xmlns:xlink="http://www.w3.org/1999/xlink" x="0px" y="0px"
	 viewBox="0 0 365.5 126.1" style="enable-background:new 0 0 365.5 126.1;" xml:space="preserve">
<style type="text/css">
	.st0{fill:#FFFFFF;}
</style>
<g>
	<path class="st0" d="M44.8,29.9c-0.9-0.9-1.9-1.6-3.1-2.1c-1.2-0.5-2.6-0.8-3.9-0.8H14c-1.4,0-2.7,0.3-3.9,0.8
		c-1.2,0.5-2.2,1.2-3.1,2.1c-0.9,0.9-1.6,2-2.2,3.2C4.2,34.3,4,35.7,4,37v14c0,1.4,0.3,2.7,0.8,3.9c0.5,1.2,1.2,2.3,2.2,3.2
		c0.9,0.9,1.9,1.6,3.1,2.1c1.2,0.5,2.6,0.8,3.9,0.8h20.8v8H16.3v-6.3h-13V72c0,1.4,0.3,2.7,0.8,3.9c0.5,1.2,1.2,2.3,2.1,3.2
		c0.9,0.9,2,1.6,3.2,2.1c1.2,0.5,2.5,0.8,3.9,0.8h24.5c1.4,0,2.7-0.3,3.9-0.8c1.2-0.5,2.3-1.2,3.2-2.1c0.9-0.9,1.6-2,2.1-3.2
		c0.5-1.2,0.8-2.5,0.8-3.9V58c0-1.4-0.3-2.7-0.8-3.9c-0.5-1.2-1.2-2.3-2.1-3.2c-0.9-0.9-2-1.6-3.2-2.1c-1.2-0.5-2.5-0.8-3.9-0.8H17
		v-8h17.8v6.3h13V37c0-1.4-0.3-2.7-0.8-3.9C46.5,31.9,45.7,30.8,44.8,29.9z"/>
	<polygon class="st0" points="90.9,48 68.8,48 68.8,27 55.8,27 55.8,82 68.8,82 68.8,61 90.9,61 90.9,82 103.9,82 103.9,27 90.9,27 
			"/>
	<path class="st0" d="M146.8,69h-22V27h-13v45c0,1.4,0.3,2.7,0.8,3.9c0.5,1.2,1.2,2.3,2.1,3.2c0.9,0.9,2,1.6,3.2,2.1
		c1.2,0.5,2.5,0.8,3.9,0.8h28c1.4,0,2.7-0.3,3.9-0.8c1.2-0.5,2.3-1.2,3.2-2.1c0.9-0.9,1.6-2,2.1-3.2c0.5-1.2,0.8-2.5,0.8-3.9V27h-13
		V69z"/>
	<polygon class="st0" points="204.3,59.2 179.3,27 167.8,27 167.8,82 180.8,82 180.8,49.8 205.8,82 217.3,82 217.3,27 204.3,27 	"/>
	<polygon class="st0" points="221.1,40 237.2,40 237.2,82 250.2,82 250.2,40 266.3,40 266.3,27 221.1,27 	"/>
	<polygon class="st0" points="270.1,82 311.8,82 311.8,69 283.1,69 283.1,61 307.6,61 307.6,48 283.1,48 283.1,40 311.8,40 
		311.8,27 270.1,27 	"/>
	<path class="st0" d="M354.9,61.1c4.9-2.2,7.6-6.9,7.6-13.6v-5.6c0-9.6-5.3-14.9-14.9-14.9h-29.8v55h13V62.4h10.4l9.1,19.6h14.4
		L354.9,61.1z M330.7,40h16.4c1.5,0,1.9,0.3,1.9,0.4c0,0,0.4,0.4,0.4,1.9v4.9c0,1.3-0.3,1.8-0.4,1.9c0,0-0.4,0.4-1.9,0.4h-16.4V40z"
		/>
</g>
<rect class="st0" width="365.5" height="16"/>
<g>
	
		<rect x="217.8" y="92.1" transform="matrix(-1 -1.224647e-16 1.224647e-16 -1 458.3961 213.8701)" class="st0" width="22.8" height="29.6"/>
	<ellipse class="st0" cx="217.8" cy="117.4" rx="5.3" ry="4.3"/>
	<ellipse class="st0" cx="217.8" cy="96.5" rx="5.3" ry="4.3"/>
	
		<rect x="212.5" y="96.5" transform="matrix(-1 -1.224647e-16 1.224647e-16 -1 435.5991 213.8701)" class="st0" width="10.7" height="20.9"/>
	
		<rect x="205.8" y="101.6" transform="matrix(-1 -1.224647e-16 1.224647e-16 -1 418.2658 213.8701)" class="st0" width="6.7" height="10.7"/>
	
		<rect x="217.8" y="92.1" transform="matrix(-1 -1.224647e-16 1.224647e-16 -1 464.0966 213.8701)" class="st0" width="28.5" height="29.6"/>
	<ellipse class="st0" cx="217.8" cy="117.4" rx="5.3" ry="4.3"/>
	<ellipse class="st0" cx="217.8" cy="96.5" rx="5.3" ry="4.3"/>
	
		<rect x="212.5" y="96.5" transform="matrix(-1 -1.224647e-16 1.224647e-16 -1 435.5991 213.8701)" class="st0" width="10.7" height="20.9"/>
	
		<rect x="202.2" y="101.6" transform="matrix(-1 -1.224647e-16 1.224647e-16 -1 414.6383 213.8701)" class="st0" width="10.3" height="10.7"/>
</g>
<polygon class="st0" points="205.8,114.8 189.4,119.2 189.4,94.7 205.8,99.1 "/>
<g>
	<rect x="124.9" y="92.1" class="st0" width="22.8" height="29.6"/>
	<ellipse class="st0" cx="147.7" cy="96.5" rx="5.3" ry="4.3"/>
	<ellipse class="st0" cx="147.7" cy="117.4" rx="5.3" ry="4.3"/>
	<rect x="142.3" y="96.5" class="st0" width="10.7" height="20.9"/>
	<rect x="153" y="101.6" class="st0" width="6.7" height="10.7"/>
	<rect x="124.9" y="92.1" class="st0" width="22.8" height="29.6"/>
	<ellipse class="st0" cx="147.7" cy="96.5" rx="5.3" ry="4.3"/>
	<ellipse class="st0" cx="147.7" cy="117.4" rx="5.3" ry="4.3"/>
	<rect x="142.3" y="96.5" class="st0" width="10.7" height="20.9"/>
	<rect x="147.7" y="101.6" class="st0" width="22.3" height="10.7"/>
</g>
<polygon class="st0" points="159.7,99.1 176.1,94.7 176.1,119.2 159.7,114.8 "/>
<rect x="72.6" y="92.1" class="st0" width="58" height="29.6"/>
<rect x="240.6" y="92.1" transform="matrix(-1 -1.224647e-16 1.224647e-16 -1 540.9015 213.8909)" class="st0" width="59.7" height="29.6"/>
<rect y="88.7" class="st0" width="124.9" height="37.3"/>
<rect x="246.3" y="88.7" class="st0" width="119.2" height="37.3"/>
</svg>
